{
    "asset" : {
        "generator" : "Khronos glTF Blender I/O v1.5.17",
        "version" : "2.0"
    },
    "scene" : 0,
    "scenes" : [
        {
            "name" : "Scene",
            "nodes" : [
                0,
                1,
                2,
                3,
                4,
                5,
                6,
                7,
                8,
                9,
                10,
                11
            ]
        }
    ],
    "nodes" : [
        {
            "name" : "Point",
            "translation" : [
                0.8289055824279785,
                9.570676803588867,
                8.124029159545898
            ]
        },
        {
            "name" : "Point.001",
            "translation" : [
                -9.280487060546875,
                6.548245429992676,
                8.124029159545898
            ]
        },
        {
            "name" : "Area",
            "rotation" : [
                0.5336489081382751,
                0,
                0,
                0.8457061052322388
            ],
            "translation" : [
                0,
                2.682922124862671,
                3.6258575916290283
            ]
        },
        {
            "name" : "Light",
            "rotation" : [
                0.16907575726509094,
                0.7558804154396057,
                -0.27217137813568115,
                0.5709474086761475
            ],
            "translation" : [
                2.4692938327789307,
                2.164154291152954,
                -1.51497483253479
            ]
        },
        {
            "name" : "Camera",
            "rotation" : [
                0.4835360646247864,
                0.33687159419059753,
                -0.20870354771614075,
                0.7804827094078064
            ],
            "translation" : [
                7.358891487121582,
                4.958309173583984,
                6.925790786743164
            ]
        },
        {
            "mesh" : 0,
            "name" : "Cylinder.001"
        },
        {
            "mesh" : 1,
            "name" : "Cylinder.002"
        },
        {
            "name" : "Light.001",
            "rotation" : [
                0.16907575726509094,
                0.7558804154396057,
                -0.27217137813568115,
                0.5709474086761475
            ],
            "translation" : [
                -2.527933359146118,
                2.164154291152954,
                -1.5345711708068848
            ]
        },
        {
            "name" : "Light.002",
            "rotation" : [
                0.16907575726509094,
                0.7558804154396057,
                -0.27217137813568115,
                0.5709474086761475
            ],
            "translation" : [
                -2.508335828781128,
                2.164154291152954,
                2.50240421295166
            ]
        },
        {
            "name" : "Light.003",
            "rotation" : [
                0.16907575726509094,
                0.7558804154396057,
                -0.27217137813568115,
                0.5709474086761475
            ],
            "translation" : [
                2.488891124725342,
                2.164154291152954,
                2.502403497695923
            ]
        },
        {
            "mesh" : 2,
            "name" : "Cylinder.003"
        },
        {
            "mesh" : 3,
            "name" : "Cylinder.004"
        }
    ],
    "materials" : [
        {
            "doubleSided" : true,
            "name" : "Material.004",
            "pbrMetallicRoughness" : {
                "baseColorTexture" : {
                    "index" : 0
                },
                "metallicFactor" : 0,
                "roughnessFactor" : 0.5
            }
        },
        {
            "doubleSided" : true,
            "name" : "Material.006",
            "pbrMetallicRoughness" : {
                "baseColorFactor" : [
                    0.030713465064764023,
                    0.008023189380764961,
                    0.0018211626447737217,
                    1
                ],
                "metallicFactor" : 0,
                "roughnessFactor" : 0.5
            }
        },
        {
            "doubleSided" : true,
            "name" : "Material.005",
            "pbrMetallicRoughness" : {
                "baseColorFactor" : [
                    0.03068731166422367,
                    0.011990894563496113,
                    0.002290512202307582,
                    1
                ],
                "metallicFactor" : 0,
                "roughnessFactor" : 0.5
            }
        },
        {
            "doubleSided" : true,
            "name" : "Material.007",
            "pbrMetallicRoughness" : {
                "baseColorFactor" : [
                    0.031113000586628914,
                    0.008566493168473244,
                    0.002094402676448226,
                    1
                ],
                "metallicFactor" : 0,
                "roughnessFactor" : 0.5
            }
        }
    ],
    "meshes" : [
        {
            "name" : "Cylinder.005",
            "primitives" : [
                {
                    "attributes" : {
                        "POSITION" : 0,
                        "NORMAL" : 1,
                        "TEXCOORD_0" : 2
                    },
                    "indices" : 3,
                    "material" : 0
                }
            ]
        },
        {
            "name" : "Cylinder.006",
            "primitives" : [
                {
                    "attributes" : {
                        "POSITION" : 4,
                        "NORMAL" : 5,
                        "TEXCOORD_0" : 6
                    },
                    "indices" : 7,
                    "material" : 1
                }
            ]
        },
        {
            "name" : "Cylinder.007",
            "primitives" : [
                {
                    "attributes" : {
                        "POSITION" : 8,
                        "NORMAL" : 9,
                        "TEXCOORD_0" : 10
                    },
                    "indices" : 11,
                    "material" : 2
                }
            ]
        },
        {
            "name" : "Cylinder.008",
            "primitives" : [
                {
                    "attributes" : {
                        "POSITION" : 12,
                        "NORMAL" : 13,
                        "TEXCOORD_0" : 14
                    },
                    "indices" : 15,
                    "material" : 3
                }
            ]
        }
    ],
    "textures" : [
        {
            "sampler" : 0,
            "source" : 0
        }
    ],
    "images" : [
        {
            "bufferView" : 4,
            "mimeType" : "image/png",
            "name" : "marajoar1"
        }
    ],
    "accessors" : [
        {
            "bufferView" : 0,
            "componentType" : 5126,
            "count" : 1820,
            "max" : [
                0.255449116230011,
                0.8029162287712097,
                0.255449116230011
            ],
            "min" : [
                -0.2554491460323334,
                0.1527038961648941,
                -0.255449116230011
            ],
            "type" : "VEC3"
        },
        {
            "bufferView" : 1,
            "componentType" : 5126,
            "count" : 1820,
            "type" : "VEC3"
        },
        {
            "bufferView" : 2,
            "componentType" : 5126,
            "count" : 1820,
            "type" : "VEC2"
        },
        {
            "bufferView" : 3,
            "componentType" : 5123,
            "count" : 8832,
            "type" : "SCALAR"
        },
        {
            "bufferView" : 5,
            "componentType" : 5126,
            "count" : 1311,
            "max" : [
                0.17174789309501648,
                0.152704119682312,
                0.1717478632926941
            ],
            "min" : [
                -0.1717478632926941,
                0.0014777514152228832,
                -0.17174790799617767
            ],
            "type" : "VEC3"
        },
        {
            "bufferView" : 6,
            "componentType" : 5126,
            "count" : 1311,
            "type" : "VEC3"
        },
        {
            "bufferView" : 7,
            "componentType" : 5126,
            "count" : 1311,
            "type" : "VEC2"
        },
        {
            "bufferView" : 8,
            "componentType" : 5123,
            "count" : 5760,
            "type" : "SCALAR"
        },
        {
            "bufferView" : 9,
            "componentType" : 5126,
            "count" : 130,
            "max" : [
                0.1775202751159668,
                0.163228839635849,
                0.1775202453136444
            ],
            "min" : [
                -0.1775202453136444,
                0.14591625332832336,
                -0.177520290017128
            ],
            "type" : "VEC3"
        },
        {
            "bufferView" : 10,
            "componentType" : 5126,
            "count" : 130,
            "type" : "VEC3"
        },
        {
            "bufferView" : 11,
            "componentType" : 5126,
            "count" : 130,
            "type" : "VEC2"
        },
        {
            "bufferView" : 12,
            "componentType" : 5123,
            "count" : 384,
            "type" : "SCALAR"
        },
        {
            "bufferView" : 13,
            "componentType" : 5126,
            "count" : 2219,
            "max" : [
                0.2350645512342453,
                0.7908556461334229,
                0.2350645512342453
            ],
            "min" : [
                -0.2350645363330841,
                0.6256270408630371,
                -0.2350645512342453
            ],
            "type" : "VEC3"
        },
        {
            "bufferView" : 14,
            "componentType" : 5126,
            "count" : 2219,
            "type" : "VEC3"
        },
        {
            "bufferView" : 15,
            "componentType" : 5126,
            "count" : 2219,
            "type" : "VEC2"
        },
        {
            "bufferView" : 16,
            "componentType" : 5123,
            "count" : 11136,
            "type" : "SCALAR"
        }
    ],
    "bufferViews" : [
        {
            "buffer" : 0,
            "byteLength" : 21840,
            "byteOffset" : 0
        },
        {
            "buffer" : 0,
            "byteLength" : 21840,
            "byteOffset" : 21840
        },
        {
            "buffer" : 0,
            "byteLength" : 14560,
            "byteOffset" : 43680
        },
        {
            "buffer" : 0,
            "byteLength" : 17664,
            "byteOffset" : 58240
        },
        {
            "buffer" : 0,
            "byteLength" : 91771,
            "byteOffset" : 75904
        },
        {
            "buffer" : 0,
            "byteLength" : 15732,
            "byteOffset" : 167676
        },
        {
            "buffer" : 0,
            "byteLength" : 15732,
            "byteOffset" : 183408
        },
        {
            "buffer" : 0,
            "byteLength" : 10488,
            "byteOffset" : 199140
        },
        {
            "buffer" : 0,
            "byteLength" : 11520,
            "byteOffset" : 209628
        },
        {
            "buffer" : 0,
            "byteLength" : 1560,
            "byteOffset" : 221148
        },
        {
            "buffer" : 0,
            "byteLength" : 1560,
            "byteOffset" : 222708
        },
        {
            "buffer" : 0,
            "byteLength" : 1040,
            "byteOffset" : 224268
        },
        {
            "buffer" : 0,
            "byteLength" : 768,
            "byteOffset" : 225308
        },
        {
            "buffer" : 0,
            "byteLength" : 26628,
            "byteOffset" : 226076
        },
        {
            "buffer" : 0,
            "byteLength" : 26628,
            "byteOffset" : 252704
        },
        {
            "buffer" : 0,
            "byteLength" : 17752,
            "byteOffset" : 279332
        },
        {
            "buffer" : 0,
            "byteLength" : 22272,
            "byteOffset" : 297084
        }
    ],
    "samplers" : [
        {
            "magFilter" : 9729,
            "minFilter" : 9987
        }
    ],
    "buffers" : [
        {
            "byteLength" : 319356,
            "uri" : "data:application/octet-stream;base64,"
        }
    ]
}
